<svg width="695" height="781" viewBox="0 0 695 781" fill="none" xmlns="http://www.w3.org/2000/svg">
<path d="M109.51 428.372C116.596 343.952 34.7061 265.594 35.2388 218.331C36.0582 171.55 119.3 155.864 187.266 110.158C255.714 64.1656 309.171 -11.3663 354.663 2.61007C400.922 16.781 439.696 120.173 459.927 193.535C480.64 266.61 482.237 308.692 519.025 340.894C556.008 372.327 627.414 393.686 665.031 437.13C703.13 480.287 706.959 545.816 661.754 562.966C616.549 580.115 522.311 548.886 466.007 582.428C409.703 615.971 392.102 714.479 350.378 754.984C308.46 796.256 242.225 780.293 164.665 760.645C86.6245 741.282 -3.027 717.753 0.802701 660.702C4.6324 603.651 101.943 513.078 109.51 428.372Z" fill="#001935" fill-opacity="0.05"/>
</svg>
