<svg width="24" height="24" viewBox="0 0 24 24" fill="none" xmlns="http://www.w3.org/2000/svg">
<path fill-rule="evenodd" clip-rule="evenodd" d="M3.19967 16.8325L1.77258 22.0431L7.10488 20.6448C8.57416 21.4461 10.2283 21.8683 11.9116 21.869H11.9159C17.4596 21.869 21.9723 17.3575 21.9748 11.8135C21.9757 9.12643 20.9302 6.60007 19.0313 4.69936C17.1319 2.79866 14.6065 1.75156 11.9159 1.75024C6.37128 1.75024 1.85924 6.26096 1.85698 11.8054C1.85642 13.5776 2.31949 15.3076 3.19967 16.8325ZM3.55536 11.8059C3.55705 7.19781 7.30743 3.44879 11.9191 3.44879C14.1523 3.44973 16.2512 4.32009 17.8298 5.89977C19.4083 7.47945 20.2771 9.57948 20.2762 11.8127C20.2744 16.4212 16.524 20.1706 11.9159 20.1706H11.9127C10.4121 20.1699 8.94078 19.7671 7.65744 19.0054L7.35189 18.8243L4.18759 19.654L5.03239 16.57L4.83345 16.2539C3.9966 14.9231 3.55468 13.385 3.55536 11.8059Z" fill="#001935"/>
<path fill-rule="evenodd" clip-rule="evenodd" d="M9.40197 7.60156C9.21358 7.18314 9.01539 7.17466 8.83642 7.16731C8.68985 7.1611 8.52218 7.16147 8.35469 7.16147C8.18702 7.16147 7.91479 7.2244 7.68458 7.4759C7.45417 7.72741 6.80478 8.33536 6.80478 9.57197C6.80478 10.8086 7.70549 12.0034 7.83096 12.1712C7.95662 12.3389 9.56964 14.9576 12.1244 15.9649C14.2475 16.8022 14.6794 16.6356 15.1404 16.5938C15.6013 16.552 16.6274 15.9858 16.8367 15.399C17.0462 14.8121 17.0462 14.3093 16.9835 14.2042C16.9206 14.0993 16.7531 14.0365 16.5016 13.9109C16.2503 13.7852 15.0146 13.1771 14.7842 13.0932C14.5538 13.0094 14.3863 12.9676 14.2186 13.2191C14.0512 13.4706 13.5698 14.0365 13.423 14.2042C13.2765 14.3721 13.1299 14.393 12.8784 14.2673C12.6271 14.1413 11.8176 13.8762 10.8573 13.02C10.1101 12.3538 9.60582 11.5311 9.45906 11.2796C9.31249 11.0281 9.44342 10.892 9.56945 10.7668C9.6823 10.6541 9.82077 10.4732 9.94662 10.3265C10.0719 10.1797 10.1139 10.075 10.1976 9.9075C10.2814 9.73964 10.2396 9.59288 10.1766 9.46722C10.1139 9.34157 9.62541 8.09854 9.40197 7.60156Z" fill="#001935"/>
</svg>
